<svg width="281" height="221" viewBox="0 0 281 221" fill="none" xmlns="http://www.w3.org/2000/svg">
<path d="M275.216 121.265H211.636C208.547 121.265 206.019 123.792 206.019 126.881V153.954C206.019 157.043 208.547 159.57 211.636 159.57H275.216C278.306 159.57 280.833 157.043 280.833 153.954V126.881C280.833 123.792 278.306 121.265 275.216 121.265Z" fill="white"/>
<path d="M275.216 181.925H211.636C208.547 181.925 206.019 184.452 206.019 187.541V214.558C206.019 217.703 208.547 220.174 211.636 220.174H275.216C278.306 220.174 280.833 217.703 280.833 214.558V187.541C280.833 184.452 278.306 181.925 275.216 181.925Z" fill="white"/>
<path d="M5.61667 98.9096H69.1411C72.2306 98.9096 74.7578 96.3821 74.7578 93.293V66.2768C74.7578 63.1315 72.2306 60.6602 69.1411 60.6602H5.61667C2.47135 60.6602 0 63.1315 0 66.2768V93.293C0 96.3821 2.47135 98.9096 5.61667 98.9096Z" fill="white"/>
<path d="M5.61667 159.57H69.1411C72.2306 159.57 74.7578 157.043 74.7578 153.954V126.881C74.7578 123.792 72.2306 121.265 69.1411 121.265H5.61667C2.47135 121.265 0 123.792 0 126.881V153.954C0 157.043 2.47135 159.57 5.61667 159.57Z" fill="white"/>
<path d="M5.61667 220.174H69.1411C72.2306 220.174 74.7578 217.703 74.7578 214.558V187.541C74.7578 184.452 72.2306 181.925 69.1411 181.925H5.61667C2.47135 181.925 0 184.452 0 187.541V214.558C0 217.703 2.47135 220.174 5.61667 220.174Z" fill="white"/>
<path d="M103.01 153.954C103.01 157.043 105.538 159.57 108.627 159.57H172.151C175.297 159.57 177.768 157.043 177.768 153.954V126.881C177.768 123.792 175.297 121.265 172.151 121.265H108.627C105.538 121.265 103.01 123.792 103.01 126.881V153.954Z" fill="white"/>
<path d="M108.627 38.2495H172.151C175.297 38.2495 177.768 35.7781 177.768 32.6328V5.61667C177.768 2.52757 175.297 0 172.151 0H108.627C105.538 0 103.01 2.52757 103.01 5.61667V32.6328C103.01 35.7781 105.538 38.2495 108.627 38.2495Z" fill="white"/>
<path d="M103.01 214.558C103.01 217.703 105.538 220.174 108.627 220.174H172.151C175.297 220.174 177.768 217.703 177.768 214.558V187.541C177.768 184.452 175.297 181.925 172.151 181.925H108.627C105.538 181.925 103.01 184.452 103.01 187.541V214.558Z" fill="white"/>
<path d="M103.01 93.293C103.01 96.3821 105.538 98.9096 108.627 98.9096H172.151C175.297 98.9096 177.768 96.3821 177.768 93.293V66.2768C177.768 63.1315 175.297 60.6602 172.151 60.6602H108.627C105.538 60.6602 103.01 63.1315 103.01 66.2768V93.293Z" fill="white"/>
</svg>
