<svg width="351" height="351" viewBox="0 0 351 351" fill="none" xmlns="http://www.w3.org/2000/svg">
<path fill-rule="evenodd" clip-rule="evenodd" d="M155.001 298.888C148.896 320.866 120.814 329.413 103.72 312.319C86.6265 295.225 95.1733 267.143 117.151 261.038L155.001 298.888Z" fill="black"/>
<path fill-rule="evenodd" clip-rule="evenodd" d="M7.26321 136.499C-14.7143 115.742 18.252 83.9967 39.0085 104.753C57.3231 123.068 119.593 63.2401 140.349 41.2626C189.188 -7.5763 245.353 -8.79727 286.866 15.6222C299.076 -2.69241 324.716 -5.13435 340.589 9.51732C355.241 25.39 352.799 51.0304 334.484 63.2401C358.903 104.753 357.682 160.918 308.844 209.757C286.866 230.513 227.038 292.783 245.353 311.098C266.109 331.854 234.364 364.82 213.608 342.843L7.26321 136.499ZM165.99 77.8918C162.327 82.7757 155.001 82.7757 151.338 79.1128C146.454 74.2289 146.454 68.124 151.338 63.2401C172.095 41.2626 208.724 18.0641 241.69 27.8319C255.121 31.4948 249.016 51.0304 235.585 47.3675C211.166 41.2626 181.862 62.0192 165.99 77.8918ZM301.518 24.169C311.285 31.4948 318.611 38.8207 325.937 48.5885C334.484 42.4836 335.705 30.2739 328.379 21.7271C319.832 14.4012 307.623 15.6222 301.518 24.169Z" fill="black"/>
</svg>
