<svg width="403" height="285" viewBox="0 0 403 285" fill="none" xmlns="http://www.w3.org/2000/svg">
<path d="M6.36216 0.135182C94.0256 29.3837 181.727 58.6596 278.877 87.8826L320.944 50.3863C321.826 49.6088 322.993 49.1639 324.168 49.158C352.041 51.0943 372.608 66.983 399.091 73.8991C401.185 74.436 402.784 76.4996 402.784 78.6633C402.784 80.827 401.185 82.89 399.091 83.4269L353.646 94.7982C355.487 123.137 353.171 142.79 345.048 158.112C320.529 198.414 277.153 219.37 230.823 212.053V280.284C230.793 284.16 225.072 286.45 222.378 283.664L179.39 240.636L102.472 230.955C98.5742 230.432 97.0926 224.287 100.323 222.042L167.415 177.323C96.38 139.554 43.7141 79.1482 0.681931 7.36077C-1.51255 1.88242 1.9116 -0.632564 6.36216 0.135182ZM325.704 59.3001C281.791 100.205 234.286 136.566 187.681 174.401C204.396 179.361 216.12 189.871 228.213 201.909C274.464 208.494 314.037 192.42 336.451 153.504C343.825 139.593 346.243 121.58 343.82 91.2665C343.679 89.0045 345.311 86.7574 347.505 86.195L381.588 77.5897C362.816 71.7931 344.079 60.8165 325.704 59.3001ZM338.907 68.8279C341.62 68.8279 343.82 71.0296 343.82 73.7459C343.82 76.4618 341.62 78.663 338.907 78.663C336.194 78.663 333.994 76.4618 333.994 73.7459C333.994 71.0296 336.194 68.8279 338.907 68.8279ZM177.855 182.085L116.75 222.962L182.307 231.107C183.397 231.225 184.442 231.72 185.224 232.489L220.996 268.295V208.516C207.48 195.067 196.169 185.229 177.855 182.085Z" fill="white"/>
</svg>
