<svg width="270" height="313" viewBox="0 0 270 313" fill="none" xmlns="http://www.w3.org/2000/svg">
<path d="M239.603 244.296C241.791 247.803 243.237 251.722 243.85 255.81C244.463 259.898 244.231 264.068 243.168 268.063C241.385 280.642 235.065 292.136 225.399 300.38C215.732 308.624 203.385 313.05 190.682 312.825C187.909 312.825 185.136 312.627 182.364 312.429C177.328 311.985 172.434 310.528 167.975 308.146C163.516 305.763 159.585 302.504 156.418 298.564C147.186 284.263 143.983 266.892 147.505 250.238C147.962 246.276 149.236 242.452 151.248 239.009C153.259 235.565 155.964 232.577 159.191 230.234C162.4 227.789 166.08 226.035 170 225.081C173.919 224.126 177.994 223.993 181.967 224.688L219.203 230.828C223.353 231.531 227.31 233.092 230.823 235.411C234.335 237.73 237.326 240.756 239.603 244.296ZM259.211 80.6984C256.131 70.6192 250.531 61.4921 242.941 54.1796C235.352 46.8671 226.022 41.6108 215.836 38.9077C207.791 37.9657 199.64 39.2171 192.249 42.5295C184.857 45.8419 178.498 51.0919 173.847 57.7234C147.505 89.8091 150.476 148.633 154.635 180.917C155.457 187.19 158.266 193.035 162.649 197.597C167.033 202.158 172.761 205.197 178.997 206.268L227.125 214.587C228.814 214.979 230.541 215.178 232.275 215.181C238.969 215.134 245.454 212.845 250.696 208.681C255.937 204.517 259.632 198.716 261.192 192.206C274.464 138.136 270.696 111.398 259.211 80.6984ZM104.526 194.385C101.429 191.834 97.8548 189.925 94.0124 188.769C90.17 187.612 86.1359 187.232 82.1452 187.651L44.5138 191.414C40.3737 191.849 36.3703 193.145 32.7604 195.218C29.1506 197.292 26.0142 200.097 23.5524 203.454C21.0906 206.811 19.3579 210.645 18.4654 214.711C17.5729 218.778 17.5403 222.985 18.3699 227.065C19.4696 240.482 25.707 252.957 35.7811 261.887C45.8551 270.817 58.9879 275.513 72.4403 274.995H76.2034C81.2787 274.918 86.285 273.807 90.9164 271.73C95.5477 269.653 99.7069 266.653 103.14 262.914C113.209 249.181 117.413 232.012 114.825 215.181C114.613 211.197 113.59 207.297 111.819 203.722C110.048 200.146 107.566 196.969 104.526 194.385ZM59.7644 0.0879432C49.4412 2.07146 39.8051 6.6873 31.7896 13.4884C23.774 20.2895 17.6506 29.0453 14.0126 38.9077C0.544473 68.8148 -4.80315 95.5529 5.09985 150.217C6.30375 157.128 9.89997 163.395 15.259 167.921C20.6179 172.447 27.3982 174.944 34.4127 174.975C35.6011 174.975 36.5914 174.777 37.7798 174.777L86.1064 169.231C92.4251 168.623 98.3743 165.976 103.055 161.688C107.736 157.4 110.894 151.705 112.052 145.464C118.192 113.576 124.926 54.9506 100.763 21.2804C96.487 14.3685 90.4154 8.74671 83.1955 5.01449C75.9755 1.28227 67.876 -0.420434 59.7644 0.0879432Z" fill="white"/>
</svg>
