<svg width="324" height="323" viewBox="0 0 324 323" fill="none" xmlns="http://www.w3.org/2000/svg">
<path d="M199.718 322.878C173.921 322.878 152.701 301.658 152.701 275.861V47.017C152.701 30.7899 139.387 17.8914 123.576 17.8914C107.349 17.8914 94.4501 31.206 94.4501 47.017V275.861C94.4501 280.854 90.2893 284.599 85.7125 284.599C80.7195 284.599 76.9748 280.438 76.9748 275.861V47.017C76.9748 21.2201 98.1949 0 123.992 0C149.789 0 171.009 21.2201 171.009 47.017V275.861C171.009 292.088 184.323 304.986 200.134 304.986C216.361 304.986 229.26 291.672 229.26 275.861V47.017C229.26 42.0241 233.421 38.2793 237.998 38.2793C242.991 38.2793 246.735 42.4401 246.735 47.017V275.861C246.735 301.658 225.515 322.878 199.718 322.878Z" fill="black"/>
<path d="M275.861 94.0342C270.868 94.0342 267.124 89.8734 267.124 85.2965C267.124 80.7196 271.284 76.5588 275.861 76.5588C292.088 76.5588 304.987 63.2443 304.987 47.4333C304.987 31.6222 291.672 18.3077 275.861 18.3077C259.634 18.3077 246.736 31.6222 246.736 47.4333C246.736 52.4262 242.575 56.1709 237.998 56.1709C233.005 56.1709 229.26 52.0101 229.26 47.4333C229.26 21.6363 250.48 0.41626 276.277 0.41626C302.074 0.41626 323.294 21.6363 323.294 47.4333C323.294 73.2302 301.658 94.0342 275.861 94.0342Z" fill="black"/>
<path d="M47.017 322.878C21.2201 322.878 0 301.658 0 275.861C0 250.064 21.2201 228.844 47.017 228.844C52.01 228.844 55.7547 233.005 55.7547 237.581C55.7547 242.574 51.5939 246.319 47.017 246.319C30.7899 246.319 17.8914 259.634 17.8914 275.445C17.8914 291.256 31.206 304.57 47.017 304.57C63.2441 304.57 76.1426 291.256 76.1426 275.445C76.1426 270.452 80.3034 266.707 84.8803 266.707C89.8732 266.707 93.6179 270.868 93.6179 275.445C94.034 301.658 72.8139 322.878 47.017 322.878Z" fill="black"/>
<path d="M275.861 246.736H47.017C42.0241 246.736 38.2793 242.575 38.2793 237.998C38.2793 233.005 42.4401 229.26 47.017 229.26H275.861C292.088 229.26 304.986 215.946 304.986 200.135C304.986 183.908 291.672 171.009 275.861 171.009H47.017C21.2201 171.009 0 149.789 0 123.992C0 98.1952 21.2201 76.9751 47.017 76.9751H275.861C280.854 76.9751 284.599 81.1359 284.599 85.7128C284.599 90.2896 280.438 94.4504 275.861 94.4504H47.017C30.7899 94.4504 17.8914 107.765 17.8914 123.576C17.8914 139.387 31.206 152.702 47.017 152.702H275.861C301.658 152.702 322.878 173.922 322.878 199.719C322.878 225.516 301.658 246.736 275.861 246.736Z" fill="black"/>
</svg>
