<svg width="333" height="290" viewBox="0 0 333 290" fill="none" xmlns="http://www.w3.org/2000/svg">
<path d="M45.2214 7.19818C40.8526 2.53808 35.1523 0 29.2024 0C16.8032 0 6.4428 11.1925 5.56904 25.4641L0.118395 115.171C-0.713764 128.569 2.86452 141.634 10.1043 151.911L58.9937 221.271C60.7828 223.851 61.7814 227.138 61.7814 230.633V240.244C56.7468 242.949 53.2934 248.233 53.2934 254.35V273.905C53.2934 282.768 60.5332 290.008 69.3957 290.008H144.29C153.152 290.008 160.392 282.768 160.392 273.905V254.35C160.392 248.233 156.939 242.949 151.904 240.244V209.496C151.904 184.698 143.916 161.356 129.394 143.756L76.7187 79.8041C72.2666 74.3951 66.1918 71.3993 59.701 71.3993C56.3308 71.3993 53.1269 72.1898 50.1728 73.6877L52.8773 29.3752C53.3766 20.9704 50.6305 12.8985 45.263 7.19818H45.2214ZM147.91 254.35V273.905C147.91 275.902 146.287 277.525 144.29 277.525H69.3957C67.3985 277.525 65.7758 275.902 65.7758 273.905V254.35C65.7758 252.352 67.3985 250.73 69.3957 250.73H144.29C146.287 250.73 147.91 252.352 147.91 254.35ZM52.2948 87.7096C56.3724 82.7166 62.9464 82.7166 67.0656 87.7096L119.741 151.661C132.224 166.806 139.38 187.902 139.38 209.496V238.247H74.2638V230.633C74.2638 224.6 72.4747 218.733 69.1876 214.073L20.2983 144.713C14.7644 136.849 11.9351 126.322 12.5592 115.92L18.0098 26.213C18.4675 18.5156 23.3772 12.4408 29.1608 12.4408C32.3646 12.4408 34.6946 14.2299 36.1093 15.7278C39.0634 18.8484 40.6446 23.6749 40.3533 28.5847L36.3173 95.3655C35.5268 103.146 37.6488 111.218 42.6417 117.334L70.2694 150.912C72.4746 153.575 76.3858 153.949 79.0487 151.744C81.7116 149.539 82.0861 145.628 79.8809 142.965L52.2532 109.387C47.4266 103.521 47.4266 93.5763 52.2532 87.7096H52.2948Z" fill="black"/>
<path d="M256.215 79.7625L203.539 143.714C189.018 161.314 181.03 184.698 181.03 209.496V240.244C175.995 242.949 172.542 248.233 172.542 254.35V273.905C172.542 282.768 179.781 290.008 188.644 290.008H263.538C272.401 290.008 279.64 282.768 279.64 273.905V254.35C279.64 248.233 276.187 242.949 271.152 240.244V230.633C271.152 227.18 272.151 223.851 273.94 221.271L322.83 151.911C330.069 141.634 333.606 128.569 332.815 115.171L327.365 25.4641C326.491 11.1925 316.131 0 303.731 0C297.781 0 292.081 2.53808 287.712 7.19818C282.387 12.8569 279.599 20.9704 280.098 29.3752L282.803 73.6877C279.848 72.1898 276.603 71.3993 273.274 71.3993C266.784 71.3993 260.709 74.3951 256.257 79.8041L256.215 79.7625ZM267.158 273.905C267.158 275.902 265.535 277.525 263.538 277.525H188.644C186.647 277.525 185.024 275.902 185.024 273.905V254.35C185.024 252.352 186.647 250.73 188.644 250.73H263.538C265.535 250.73 267.158 252.352 267.158 254.35V273.905ZM280.639 87.7096C285.466 93.5763 285.466 103.521 280.639 109.387L253.011 142.965C250.806 145.628 251.222 149.539 253.843 151.744C256.506 153.908 260.418 153.533 262.623 150.912L290.25 117.334C295.285 111.26 297.365 103.146 296.575 95.4071L292.539 28.6263C292.248 23.7165 293.829 18.9316 296.783 15.7694C298.198 14.2715 300.528 12.4824 303.731 12.4824C309.515 12.4824 314.425 18.5155 314.882 26.2546L320.333 115.961C320.957 126.405 318.128 136.89 312.594 144.754L263.705 214.115C260.418 218.775 258.628 224.641 258.628 230.675V238.289H193.512V209.538C193.512 187.943 200.668 166.89 213.192 151.703L265.868 87.7512C269.987 82.7583 276.52 82.7583 280.639 87.7512V87.7096Z" fill="black"/>
<path d="M241.153 34.3267C182.195 -10.9428 135.719 -5.11766 90.4492 53.1335C86.5797 58.1264 85.8724 64.7837 88.5769 70.484C91.2398 76.1011 96.732 79.721 102.932 79.8874C107.176 80.0122 111.004 79.4713 114.291 78.2647C118.243 76.8084 122.571 77.9734 129.852 80.1371C135.677 81.8846 142.293 83.8402 150.406 84.3395C152.237 84.4227 154.276 84.6307 156.439 84.8804C160.642 85.2964 165.552 85.7957 171.127 85.7957C188.478 85.7957 212.361 80.8444 242.069 53.1335C244.732 50.637 246.146 47.1419 245.98 43.5221C245.772 39.9022 244.024 36.5319 241.153 34.3267ZM133.43 68.1956C128.229 66.6145 123.195 65.1166 118.077 65.1166C115.414 65.1166 112.751 65.5327 110.005 66.5313C108.216 67.197 105.886 67.4466 103.265 67.405C101.142 67.3634 100.186 65.8239 99.8526 65.1582C99.603 64.6173 98.854 62.6617 100.31 60.7894C110.92 47.1419 121.364 36.6983 131.974 29.4169C130.31 33.9522 129.394 38.7371 129.394 43.6469C129.394 53.4664 132.765 62.4537 138.382 69.6102C136.717 69.1526 135.053 68.6533 133.43 68.1956ZM171.502 73.3134C155.15 73.3134 141.877 59.9988 141.877 43.6469C141.877 33.4113 147.286 23.7999 155.982 18.4324C166.55 15.936 177.493 16.3937 189.019 19.7223C196.633 25.2978 201.168 34.2019 201.168 43.6469C201.168 59.9988 187.853 73.3134 171.502 73.3134ZM209.157 62.4953C212.028 56.8366 213.65 50.429 213.65 43.6469C213.65 38.6955 212.777 33.8274 211.112 29.2505C218.269 33.2449 225.675 38.1962 233.414 44.1462C224.677 52.2597 216.605 58.2097 209.157 62.4953Z" fill="black"/>
<path d="M187.521 34.6184C185.69 34.5352 184.15 35.4922 183.443 37.1149C182.819 38.5711 181.363 39.4865 179.74 39.4865C177.493 39.4865 175.662 37.6558 175.662 35.4089C175.662 33.8278 176.619 32.3716 178.076 31.7474C179.657 31.0401 180.655 29.4174 180.53 27.6699C180.447 25.9223 179.282 24.466 177.618 23.9251C175.662 23.3426 173.582 23.0098 171.502 23.0098C160.143 23.0098 150.864 32.2883 150.864 43.6473C150.864 55.0063 160.143 64.2849 171.502 64.2849C182.861 64.2849 192.139 55.0479 192.139 43.6473C192.139 41.6085 191.848 39.5697 191.224 37.5726C190.724 35.9082 189.227 34.7432 187.521 34.6184Z" fill="black"/>
</svg>
