<svg width="383" height="356" viewBox="0 0 383 356" fill="none" xmlns="http://www.w3.org/2000/svg">
<path d="M209.348 190.626C209.348 187.123 212.188 184.282 215.692 184.282H253.755C257.259 184.282 260.099 187.123 260.099 190.626C260.099 194.13 257.259 196.97 253.755 196.97H215.692C212.188 196.97 209.348 194.13 209.348 190.626Z" fill="black"/>
<path fill-rule="evenodd" clip-rule="evenodd" d="M356.502 4.04014C334.202 -6.16785 307.849 3.63476 297.641 25.9348L294.201 33.4495L297.816 56.0352L273.958 108.156H19.0316C8.52079 108.156 0 116.676 0 127.187V177.938C0 224.793 24.1887 265.999 60.7601 289.748C51.0078 295.159 44.4072 305.561 44.4072 317.504C44.4072 326.668 48.6354 333.857 54.4851 339.015C60.2154 344.069 67.5744 347.28 74.5882 349.034C76.6055 349.539 78.699 349.819 80.75 350.139C84.6927 350.753 90.6617 351.561 98.9037 352.365C115.386 353.973 140.969 355.567 177.629 355.567C214.288 355.567 239.871 353.973 256.354 352.365C264.596 351.561 270.565 350.753 274.507 350.139C276.564 349.818 278.64 349.509 280.669 349.034C287.683 347.28 295.042 344.069 300.772 339.015C306.622 333.857 310.85 326.668 310.85 317.504C310.85 305.561 304.249 295.159 294.498 289.748C331.069 265.999 355.257 224.793 355.257 177.938V127.187C355.257 119.114 350.23 112.215 343.136 109.449L355.499 82.4395L374.957 70.416L378.397 62.901C388.605 40.6011 378.802 14.2481 356.502 4.04014ZM279.131 298.34C261.826 306.56 242.468 311.16 222.036 311.16H133.222C112.789 311.16 93.4314 306.56 76.1266 298.34V298.472C65.6154 298.472 57.0949 306.993 57.0949 317.504C57.0949 322.354 59.2106 326.267 62.8767 329.499C66.6399 332.817 71.9276 335.277 77.5641 336.699C79.2668 337.054 80.986 337.334 82.7039 337.602C86.3935 338.177 92.1214 338.955 100.136 339.737C116.165 341.301 141.333 342.879 177.629 342.879C213.924 342.879 239.092 341.301 255.122 339.737C263.136 338.955 268.864 338.177 272.553 337.602C274.271 337.334 275.991 337.054 277.693 336.699C283.33 335.277 288.617 332.817 292.381 329.499C296.047 326.267 298.162 322.354 298.162 317.504C298.162 306.993 289.642 298.472 279.131 298.472V298.34ZM228.38 158.907C228.38 155.403 231.22 152.563 234.724 152.563H342.57V127.187C342.57 124.092 340.353 121.515 337.421 120.956H268.099L268.15 120.844H19.0316C15.528 120.844 12.6878 123.684 12.6878 127.187V177.938C12.6878 244.507 66.6526 298.472 133.222 298.472H222.036C256.703 298.472 287.951 283.837 309.94 260.409H266.443C262.939 260.409 260.099 257.569 260.099 254.065C260.099 250.561 262.939 247.721 266.443 247.721H320.327C324.569 241.757 328.281 235.39 331.396 228.689H234.724C231.22 228.689 228.38 225.849 228.38 222.346C228.38 218.842 231.22 216.002 234.724 216.002H336.226C336.244 216.002 336.261 216.002 336.278 216.002C336.33 216.002 336.383 216.003 336.435 216.005C338.477 209.865 340.039 203.505 341.076 196.97H279.131C275.627 196.97 272.787 194.13 272.787 190.626C272.787 187.122 275.627 184.282 279.131 184.282H342.405C342.514 182.181 342.57 180.066 342.57 177.938V165.251H234.724C231.22 165.251 228.38 162.411 228.38 158.907ZM329.773 108.156L345.561 73.666L365.019 61.6418L366.86 57.6204C374.151 41.6916 367.15 22.868 351.221 15.5766C335.293 8.28521 316.469 15.2871 309.177 31.2157L307.336 35.2374L310.952 57.8234L287.912 108.156H329.773Z" fill="black"/>
</svg>
