<svg width="366" height="357" viewBox="0 0 366 357" fill="none" xmlns="http://www.w3.org/2000/svg">
<path d="M4.85672 208.924C45.9945 235.558 80.6504 241.013 107.092 241.013C117.083 241.035 127.067 240.499 136.998 239.409C155.175 237.041 172.893 231.957 189.56 224.327C204.823 217.378 221.015 212.687 237.629 210.4C274.402 205.972 312.588 215.214 351.159 237.997C353.363 239.29 355.991 239.655 358.464 239.011C359.689 238.692 360.839 238.136 361.848 237.372C362.858 236.609 363.707 235.655 364.347 234.563C364.988 233.472 365.407 232.265 365.581 231.011C365.755 229.758 365.681 228.482 365.362 227.258C365.043 226.033 364.486 224.883 363.723 223.874C362.96 222.864 362.005 222.015 360.914 221.375C318.621 196.474 276.392 186.334 235.318 191.275C217.008 193.769 199.154 198.892 182.308 206.485C167.287 213.43 151.293 218.039 134.88 220.155C92.9683 226.635 50.1656 216.83 15.2535 192.751C13.1124 191.53 10.5844 191.177 8.19036 191.764C5.79637 192.351 3.71883 193.834 2.38588 195.908C1.05294 197.981 0.566155 200.487 1.02585 202.909C1.48555 205.33 2.85669 207.483 4.85672 208.924Z" fill="black"/>
<path d="M361.106 279.07C318.813 254.105 276.584 243.965 235.511 248.971C217.195 251.434 199.336 256.558 182.5 264.181C167.411 271.136 151.356 275.766 134.88 277.915C92.9572 284.456 50.1243 274.62 15.2535 250.447C14.193 249.683 12.9879 249.143 11.7119 248.859C10.4358 248.576 9.11549 248.556 7.83134 248.8C6.54719 249.044 5.32613 249.546 4.24259 250.277C3.15905 251.008 2.23573 251.952 1.52892 253.052C0.822102 254.151 0.346596 255.383 0.131385 256.673C-0.083827 257.962 -0.0342367 259.281 0.277134 260.551C0.588505 261.82 1.15513 263.013 1.94248 264.056C2.72982 265.1 3.72139 265.972 4.85674 266.619C45.9946 293.253 80.6504 298.708 107.092 298.708C117.081 298.752 127.066 298.237 136.998 297.168C155.178 294.78 172.896 289.674 189.56 282.022C204.823 275.073 221.015 270.382 237.629 268.095C274.402 263.603 312.588 272.909 351.159 295.692C353.363 296.985 355.991 297.35 358.464 296.707C360.937 296.063 363.054 294.463 364.347 292.258C365.641 290.054 366.006 287.426 365.362 284.953C364.718 282.48 363.118 280.363 360.914 279.07H361.106Z" fill="black"/>
<path d="M361.106 336.766C318.813 311.801 276.584 301.661 235.511 306.667C217.195 309.13 199.336 314.254 182.5 321.877C167.415 328.854 151.359 333.506 134.88 335.675C92.9489 342.197 50.1152 332.339 15.2535 308.143C14.193 307.379 12.9879 306.839 11.7119 306.556C10.4358 306.273 9.11549 306.252 7.83134 306.496C6.54719 306.74 5.32613 307.243 4.24259 307.974C3.15905 308.705 2.23573 309.649 1.52892 310.748C0.822102 311.848 0.346596 313.08 0.131385 314.369C-0.083827 315.658 -0.0342367 316.978 0.277134 318.247C0.588505 319.517 1.15513 320.709 1.94248 321.753C2.72982 322.796 3.72139 323.668 4.85674 324.316C45.9946 350.949 80.6504 356.404 107.092 356.404C117.081 356.505 127.067 356.012 136.998 354.928C155.188 352.549 172.91 347.42 189.56 339.718C204.812 332.74 221.009 328.047 237.629 325.792C274.402 321.299 312.588 330.605 351.159 353.388C352.25 354.029 353.457 354.448 354.711 354.622C355.964 354.796 357.239 354.722 358.464 354.403C359.689 354.084 360.839 353.527 361.848 352.764C362.858 352.001 363.707 351.046 364.347 349.955C364.988 348.863 365.407 347.656 365.581 346.403C365.755 345.149 365.681 343.874 365.362 342.649C365.043 341.425 364.486 340.275 363.723 339.265C362.96 338.256 362.005 337.407 360.914 336.766H361.106Z" fill="black"/>
<path d="M80.0287 95.6119C104.449 91.6479 121.032 68.6377 117.068 44.2172C113.104 19.7968 90.0942 3.21352 65.6737 7.17752C41.2532 11.1415 24.67 34.1517 28.634 58.5722C32.598 82.9927 55.6082 99.5759 80.0287 95.6119Z" fill="black"/>
<path d="M154.711 118.947H222.803C225.782 118.947 228.638 120.131 230.745 122.237C232.851 124.343 234.034 127.2 234.034 130.179C234.034 133.157 232.851 136.014 230.745 138.12C228.638 140.226 225.782 141.41 222.803 141.41H213.561C210.583 141.41 207.726 142.593 205.62 144.699C203.514 146.805 202.33 149.662 202.33 152.641C202.33 155.619 203.514 158.476 205.62 160.582C207.726 162.689 210.583 163.872 213.561 163.872H320.545C323.524 163.872 326.381 162.689 328.487 160.582C330.593 158.476 331.776 155.619 331.776 152.641C331.776 149.662 330.593 146.805 328.487 144.699C326.381 142.593 323.524 141.41 320.545 141.41H266.187C263.208 141.41 260.352 140.226 258.245 138.12C256.139 136.014 254.956 133.157 254.956 130.179C254.956 127.2 256.139 124.343 258.245 122.237C260.352 120.131 263.208 118.947 266.187 118.947H274.53C277.509 118.947 280.365 117.764 282.472 115.658C284.578 113.552 285.761 110.695 285.761 107.716C285.761 104.738 284.578 101.881 282.472 99.7749C280.365 97.6686 277.509 96.4854 274.53 96.4854H154.711C151.732 96.4854 148.875 97.6686 146.769 99.7749C144.663 101.881 143.479 104.738 143.479 107.716C143.479 110.695 144.663 113.552 146.769 115.658C148.875 117.764 151.732 118.947 154.711 118.947Z" fill="black"/>
</svg>
