<svg width="412" height="307" viewBox="0 0 412 307" fill="none" xmlns="http://www.w3.org/2000/svg">
<path d="M64.0643 258.505C28.7727 258.505 0 229.732 0 194.441C0 159.374 28.3232 130.826 63.39 130.376C73.5054 81.5977 116.889 46.0813 167.466 46.0813C172.861 46.0813 177.357 50.577 177.357 55.9719C177.357 61.3668 172.861 65.8626 167.466 65.8626C123.633 65.8626 86.7678 98.6815 81.5977 142.065C80.9234 147.46 76.2028 151.282 70.5831 150.832C68.3353 150.607 66.0874 150.383 64.0643 150.383C39.5625 150.383 19.7813 170.164 19.7813 194.666C19.7813 219.167 39.5625 238.949 64.0643 238.949C69.4592 238.949 73.9549 243.444 73.9549 248.839C73.9549 254.234 69.684 258.505 64.0643 258.505Z" fill="black"/>
<path d="M270.868 258.505C265.473 258.505 260.978 254.009 260.978 248.614C260.978 243.219 265.473 238.723 270.868 238.723C295.37 238.723 315.151 218.942 315.151 194.44C315.151 169.939 295.37 150.157 270.868 150.157C268.845 150.157 266.597 150.382 264.35 150.607C258.955 151.057 254.009 147.235 253.335 141.84C248.165 98.4564 211.3 65.6375 167.466 65.6375C162.071 65.6375 157.576 61.1417 157.576 55.7468C157.576 50.3519 162.071 45.8562 167.466 45.8562C218.043 45.8562 261.203 81.5973 271.543 130.151C306.609 130.601 334.933 159.149 334.933 194.216C334.933 229.957 306.16 258.505 270.868 258.505Z" fill="black"/>
<path d="M359.884 166.342H350.668C345.273 166.342 340.777 161.847 340.777 156.452C340.777 151.057 345.273 146.561 350.668 146.561H359.884C377.193 146.561 391.129 132.624 391.129 115.316C391.129 98.0072 377.193 84.0704 359.884 84.0704C358.31 84.0704 356.962 84.0704 355.613 84.2952C352.916 84.7447 350.218 84.0704 348.195 82.2721C346.172 80.6986 344.598 78.2259 344.374 75.5285C340.777 43.6087 313.578 19.7813 281.433 19.7813C266.597 19.7813 252.211 24.9514 240.747 34.6172C236.476 38.2138 230.182 37.5394 226.81 33.2685C223.213 28.9975 223.888 22.7035 228.159 19.3317C243.22 6.74361 262.102 0 281.433 0C320.546 0 353.815 26.9744 362.581 64.2891C389.556 65.6378 411.135 88.1165 411.135 115.316C410.911 143.414 387.982 166.342 359.884 166.342Z" fill="black"/>
<path fill-rule="evenodd" clip-rule="evenodd" d="M174.21 185.674L204.781 191.519L177.807 232.205L197.363 236.027L139.368 296.27L164.095 243.22L139.818 238.499L174.21 185.674Z" fill="black"/>
<path d="M139.368 306.385C137.345 306.385 135.547 305.71 133.748 304.586C129.702 301.889 128.353 296.494 130.377 292.223L149.708 250.637L138.019 248.39C134.872 247.715 131.95 245.467 130.826 242.545C129.477 239.398 129.927 236.026 131.725 233.329L166.118 180.504C168.366 177.132 172.412 175.334 176.233 176.233L206.804 182.077C210.176 182.752 212.873 185 214.222 187.922C215.571 191.069 215.121 194.441 213.323 197.363L194.666 225.686L199.611 226.585C203.208 227.26 206.13 229.957 207.254 233.329C208.378 236.701 207.479 240.522 205.006 243.22L147.236 303.687C144.763 305.261 142.066 306.385 139.368 306.385ZM173.985 241.421C174.21 242.995 174.21 244.793 173.536 246.591L177.582 242.545L176.008 242.32C175.109 241.871 174.435 241.646 173.985 241.421ZM156.227 231.531L165.893 233.329C166.567 233.554 167.242 233.778 167.916 234.003C167.466 231.531 167.916 228.833 169.49 226.585L188.147 198.487L178.706 196.689L156.227 231.531Z" fill="black"/>
</svg>
