<svg width="442" height="426" viewBox="0 0 442 426" fill="none" xmlns="http://www.w3.org/2000/svg">
<path d="M431.75 425.442H9.42685C4.22134 425.442 0 421.223 0 416.015C0 410.808 4.22134 406.589 9.42685 406.589H431.75C436.957 406.589 441.177 410.808 441.177 416.015C441.177 421.223 436.957 425.442 431.75 425.442Z" fill="black"/>
<path d="M178.035 240.173C185.86 231.556 190.253 220.339 190.253 208.517C190.253 200.995 188.499 193.698 185.124 187.099C189.8 179.652 192.327 170.961 192.327 162.081C192.327 156.406 191.309 150.844 189.348 145.602C200.943 136.798 208.051 122.865 208.051 108.027C208.051 103.634 207.466 99.3166 206.278 95.1499C213.292 86.7412 217.232 76.0323 217.232 64.9463C217.232 38.9659 196.097 17.8309 170.117 17.8309C166.535 17.8309 163.009 18.2268 159.578 19.0187C150.698 8.29093 137.368 1.86182 123.247 1.86182C100.434 1.86182 81.3537 18.1514 77.0362 39.7012C75.8296 39.6069 74.6229 39.5692 73.4163 39.5692C47.4359 39.5692 26.3009 60.7042 26.3009 86.6846C26.3009 91.2661 26.9419 95.7155 28.2051 100.014C16.742 108.838 9.89814 122.488 9.89814 137.288C9.89814 144.434 11.4819 151.334 14.4984 157.631C5.54294 166.398 0.395874 178.446 0.395874 191.247C0.395874 206.783 7.97506 221.017 20.3054 229.728C18.2126 235.12 17.1191 240.889 17.1191 246.771C17.1191 272.752 38.2541 293.887 64.2345 293.887C70.9842 293.887 77.6395 292.454 83.7293 289.682C85.8409 290.569 88.0279 291.304 90.2715 291.851C90.1772 343.887 91.8552 389.532 92.5716 406.594C92.7225 410.233 92.8356 412.552 92.8733 413.382C93.0995 418.434 97.2662 422.375 102.281 422.375C102.432 422.375 102.583 422.356 102.734 422.356C107.937 422.111 111.953 417.699 111.689 412.495C111.67 412.288 111.576 410.214 111.444 406.594C110.784 390.757 109.125 345.056 109.182 293.02C116.252 297.017 124.208 299.147 132.41 299.147C158.409 299.147 179.544 277.993 179.544 252.013C179.544 247.978 179.035 244.019 178.035 240.173Z" fill="black"/>
<path d="M411.593 161.9C409.167 157.294 403.463 155.526 398.861 157.948C376.473 169.73 353.324 171.348 333.68 162.509C333.452 162.405 333.218 162.313 332.983 162.228C328.15 160.501 323.424 158.461 318.418 156.3C306.444 151.133 294.065 145.789 279.876 144.843C279.666 144.83 279.457 144.822 279.248 144.822C256.267 144.822 238.409 149.277 224.659 158.446C220.326 161.334 219.157 167.187 222.044 171.519C224.928 175.852 230.784 177.023 235.117 174.134C245.611 167.139 259.945 163.717 278.923 163.678C289.766 164.47 300.057 168.912 310.946 173.614C315.896 175.75 321.009 177.956 326.292 179.858C337.051 184.641 348.537 187.019 360.324 187.019C375.892 187.019 391.989 182.869 407.641 174.632C412.247 172.207 414.018 166.508 411.593 161.9Z" fill="black"/>
<path d="M243.352 233.938C239.67 237.618 239.67 243.587 243.352 247.268C247.031 250.95 253.003 250.95 256.682 247.268C271.265 232.688 294.993 232.684 309.582 247.268C316.861 254.549 316.861 266.395 309.582 273.676C306.774 276.48 301.882 276.483 299.071 273.676C299.022 273.625 298.871 273.474 298.871 273.188C298.871 272.901 299.022 272.752 299.071 272.701C302.751 269.021 302.753 263.052 299.073 259.37C295.39 255.688 289.423 255.688 285.741 259.368C282.05 263.058 280.017 267.967 280.017 273.188C280.017 278.408 282.05 283.314 285.741 287.006C290.866 292.132 297.596 294.692 304.327 294.692C311.056 294.692 317.789 292.132 322.911 287.006C337.544 272.375 337.544 248.567 322.911 233.938C300.981 212.004 265.285 212 243.352 233.938Z" fill="black"/>
<path d="M302.664 98.7641C314.992 112.03 331.751 119.699 349.849 120.363C350.697 120.395 351.542 120.408 352.389 120.408C369.559 120.408 385.843 114.02 398.486 102.269C407.183 94.1845 412.211 83.1985 412.645 71.3319C413.079 59.4673 408.867 48.1419 400.784 39.4447C395.247 33.4888 387.724 30.0442 379.598 29.7463C371.459 29.4503 363.718 32.333 357.764 37.8704C353.452 41.8768 350.958 47.3236 350.743 53.206C350.528 59.0883 352.615 64.703 356.623 69.0129C360.17 72.8251 366.133 73.042 369.945 69.4994C373.757 65.9549 373.976 59.9895 370.432 56.1773C369.651 55.3383 369.564 54.3862 369.583 53.896C369.602 53.4058 369.757 52.4631 370.598 51.6807C372.864 49.5729 375.822 48.4775 378.908 48.5887C382.002 48.7018 384.864 50.0122 386.972 52.2803C391.627 57.2878 394.053 63.8093 393.803 70.6419C393.554 77.4745 390.658 83.8018 385.648 88.4568C376.073 97.3576 363.565 101.975 350.537 101.519C337.47 101.042 325.373 95.5043 316.472 85.9266C312.93 82.1125 306.962 81.8975 303.15 85.4383C299.338 88.9865 299.119 94.9518 302.664 98.7641Z" fill="black"/>
<path d="M246.738 327.937C244.759 326.353 226.753 312.609 207.353 316.775C187.952 320.923 177.149 340.814 175.98 343.057C173.906 347.073 174.962 351.975 178.488 354.784C180.222 356.161 194.061 366.719 210.388 366.719C212.839 366.719 215.347 366.492 217.873 365.946C237.274 361.798 248.077 341.907 249.246 339.664C251.32 335.648 250.264 330.746 246.738 327.937Z" fill="black"/>
<path d="M424.039 274.732C422.757 270.395 418.609 267.624 414.103 268.039C411.558 268.302 389.084 270.942 378.036 287.42C366.987 303.898 373.058 325.712 373.775 328.144C374.981 332.16 378.677 334.856 382.806 334.856C383.107 334.856 383.428 334.837 383.73 334.818C386.256 334.554 408.748 331.915 419.797 315.437C430.845 298.959 424.774 277.164 424.039 274.732Z" fill="black"/>
<path d="M248.869 52.39C250.189 52.786 257.202 54.8033 265.988 54.8033C273.379 54.8033 282.051 53.3704 289.612 48.3553C306.146 37.3825 308.918 14.9277 309.182 12.4013C309.634 7.91414 306.863 3.72862 302.545 2.40886C300.132 1.67357 278.356 -4.5293 261.821 6.44355C245.287 17.3976 242.515 39.8712 242.251 42.3976C241.78 46.8848 244.57 51.0703 248.869 52.39Z" fill="black"/>
</svg>
